<svg width="227" height="153" viewBox="0 0 227 153" fill="none" xmlns="http://www.w3.org/2000/svg">
<rect width="227" height="153" rx="10" fill="#565555"/>
<path d="M54.2549 80.9275C46.8288 80.9275 39.7069 77.9775 34.4559 72.7265C29.2049 67.4755 26.2549 60.3536 26.2549 52.9275C26.2549 45.5014 29.2049 38.3795 34.4559 33.1285C39.7069 27.8775 46.8288 24.9275 54.2549 24.9275C61.6809 24.9275 68.8029 27.8775 74.0539 33.1285C79.3049 38.3795 82.2549 45.5014 82.2549 52.9275C82.2549 60.3536 79.3049 67.4755 74.0539 72.7265C68.8029 77.9775 61.6809 80.9275 54.2549 80.9275ZM54.2549 84.9275C62.7418 84.9275 70.8811 81.5561 76.8823 75.5549C82.8835 69.5537 86.2549 61.4144 86.2549 52.9275C86.2549 44.4406 82.8835 36.3012 76.8823 30.3001C70.8811 24.2989 62.7418 20.9275 54.2549 20.9275C45.768 20.9275 37.6286 24.2989 31.6275 30.3001C25.6263 36.3012 22.2549 44.4406 22.2549 52.9275C22.2549 61.4144 25.6263 69.5537 31.6275 75.5549C37.6286 81.5561 45.768 84.9275 54.2549 84.9275Z" fill="white"/>
<path d="M54.2549 44.9275C52.1332 44.9275 50.0983 45.7703 48.598 47.2706C47.0977 48.7709 46.2549 50.8058 46.2549 52.9275C46.2549 55.0492 47.0977 57.0841 48.598 58.5843C50.0983 60.0846 52.1332 60.9275 54.2549 60.9275C56.3766 60.9275 58.4114 60.0846 59.9117 58.5843C61.412 57.0841 62.2549 55.0492 62.2549 52.9275C62.2549 50.8058 61.412 48.7709 59.9117 47.2706C58.4114 45.7703 56.3766 44.9275 54.2549 44.9275ZM38.2549 52.9275C38.2549 48.684 39.9406 44.6144 42.9412 41.6138C45.9418 38.6132 50.0114 36.9275 54.2549 36.9275C58.4983 36.9275 62.568 38.6132 65.5686 41.6138C68.5692 44.6144 70.2549 48.684 70.2549 52.9275C70.2549 57.171 68.5692 61.2406 65.5686 64.2412C62.568 67.2418 58.4983 68.9275 54.2549 68.9275C50.0114 68.9275 45.9418 67.2418 42.9412 64.2412C39.9406 61.2406 38.2549 57.171 38.2549 52.9275Z" fill="white"/>
<path d="M58.2549 52.9275C58.2549 53.9884 57.8335 55.0058 57.0833 55.7559C56.3332 56.5061 55.3157 56.9275 54.2549 56.9275C53.194 56.9275 52.1766 56.5061 51.4265 55.7559C50.6763 55.0058 50.2549 53.9884 50.2549 52.9275C50.2549 51.8666 50.6763 50.8492 51.4265 50.0991C52.1766 49.3489 53.194 48.9275 54.2549 48.9275C55.3157 48.9275 56.3332 49.3489 57.0833 50.0991C57.8335 50.8492 58.2549 51.8666 58.2549 52.9275Z" fill="white"/>
<path d="M72.3052 116.03C70.6885 116.03 69.2135 115.655 67.8802 114.905C66.5468 114.138 65.4885 113.08 64.7052 111.73C63.9385 110.363 63.5552 108.83 63.5552 107.13C63.5552 105.43 63.9385 103.905 64.7052 102.555C65.4885 101.188 66.5468 100.13 67.8802 99.3797C69.2135 98.6131 70.6885 98.2297 72.3052 98.2297C73.9385 98.2297 75.4219 98.6131 76.7552 99.3797C78.0885 100.13 79.1385 101.18 79.9052 102.53C80.6719 103.88 81.0552 105.413 81.0552 107.13C81.0552 108.846 80.6719 110.38 79.9052 111.73C79.1385 113.08 78.0885 114.138 76.7552 114.905C75.4219 115.655 73.9385 116.03 72.3052 116.03ZM72.3052 114.055C73.5218 114.055 74.6135 113.771 75.5802 113.205C76.5635 112.638 77.3302 111.83 77.8802 110.78C78.4469 109.73 78.7302 108.513 78.7302 107.13C78.7302 105.73 78.4469 104.513 77.8802 103.48C77.3302 102.43 76.5718 101.621 75.6052 101.055C74.6385 100.488 73.5385 100.205 72.3052 100.205C71.0718 100.205 69.9718 100.488 69.0052 101.055C68.0385 101.621 67.2718 102.43 66.7052 103.48C66.1552 104.513 65.8802 105.73 65.8802 107.13C65.8802 108.513 66.1552 109.73 66.7052 110.78C67.2718 111.83 68.0385 112.638 69.0052 113.205C69.9885 113.771 71.0885 114.055 72.3052 114.055ZM86.1885 104.38C86.5885 103.596 87.1552 102.988 87.8885 102.555C88.6385 102.121 89.5468 101.905 90.6135 101.905V104.255H90.0135C87.4635 104.255 86.1885 105.638 86.1885 108.405V115.855H83.9135V102.155H86.1885V104.38ZM92.2447 108.955C92.2447 107.555 92.528 106.33 93.0947 105.28C93.6613 104.213 94.4363 103.388 95.4197 102.805C96.4197 102.221 97.5363 101.93 98.7697 101.93C99.8363 101.93 100.828 102.18 101.745 102.68C102.661 103.163 103.361 103.805 103.845 104.605V97.3547H106.145V115.855H103.845V113.28C103.395 114.096 102.728 114.771 101.845 115.305C100.961 115.821 99.928 116.08 98.7447 116.08C97.528 116.08 96.4197 115.78 95.4197 115.18C94.4363 114.58 93.6613 113.738 93.0947 112.655C92.528 111.571 92.2447 110.338 92.2447 108.955ZM103.845 108.98C103.845 107.946 103.636 107.046 103.22 106.28C102.803 105.513 102.236 104.93 101.52 104.53C100.82 104.113 100.045 103.905 99.1947 103.905C98.3447 103.905 97.5697 104.105 96.8697 104.505C96.1697 104.905 95.6113 105.488 95.1947 106.255C94.778 107.021 94.5697 107.921 94.5697 108.955C94.5697 110.005 94.778 110.921 95.1947 111.705C95.6113 112.471 96.1697 113.063 96.8697 113.48C97.5697 113.88 98.3447 114.08 99.1947 114.08C100.045 114.08 100.82 113.88 101.52 113.48C102.236 113.063 102.803 112.471 103.22 111.705C103.636 110.921 103.845 110.013 103.845 108.98ZM122.344 108.48C122.344 108.913 122.319 109.371 122.269 109.855H111.319C111.403 111.205 111.861 112.263 112.694 113.03C113.544 113.78 114.569 114.155 115.769 114.155C116.753 114.155 117.569 113.93 118.219 113.48C118.886 113.013 119.353 112.396 119.619 111.63H122.069C121.703 112.946 120.969 114.021 119.869 114.855C118.769 115.671 117.403 116.08 115.769 116.08C114.469 116.08 113.303 115.788 112.269 115.205C111.253 114.621 110.453 113.796 109.869 112.73C109.286 111.646 108.994 110.396 108.994 108.98C108.994 107.563 109.278 106.321 109.844 105.255C110.411 104.188 111.203 103.371 112.219 102.805C113.253 102.221 114.436 101.93 115.769 101.93C117.069 101.93 118.219 102.213 119.219 102.78C120.219 103.346 120.986 104.13 121.519 105.13C122.069 106.113 122.344 107.23 122.344 108.48ZM119.994 108.005C119.994 107.138 119.803 106.396 119.419 105.78C119.036 105.146 118.511 104.671 117.844 104.355C117.194 104.021 116.469 103.855 115.669 103.855C114.519 103.855 113.536 104.221 112.719 104.955C111.919 105.688 111.461 106.705 111.344 108.005H119.994ZM127.477 104.38C127.877 103.596 128.444 102.988 129.177 102.555C129.927 102.121 130.835 101.905 131.902 101.905V104.255H131.302C128.752 104.255 127.477 105.638 127.477 108.405V115.855H125.202V102.155H127.477V104.38ZM139.233 116.08C138.183 116.08 137.242 115.905 136.408 115.555C135.575 115.188 134.917 114.688 134.433 114.055C133.95 113.405 133.683 112.663 133.633 111.83H135.983C136.05 112.513 136.367 113.071 136.933 113.505C137.517 113.938 138.275 114.155 139.208 114.155C140.075 114.155 140.758 113.963 141.258 113.58C141.758 113.196 142.008 112.713 142.008 112.13C142.008 111.53 141.742 111.088 141.208 110.805C140.675 110.505 139.85 110.213 138.733 109.93C137.717 109.663 136.883 109.396 136.233 109.13C135.6 108.846 135.05 108.438 134.583 107.905C134.133 107.355 133.908 106.638 133.908 105.755C133.908 105.055 134.117 104.413 134.533 103.83C134.95 103.246 135.542 102.788 136.308 102.455C137.075 102.105 137.95 101.93 138.933 101.93C140.45 101.93 141.675 102.313 142.608 103.08C143.542 103.846 144.042 104.896 144.108 106.23H141.833C141.783 105.513 141.492 104.938 140.958 104.505C140.442 104.071 139.742 103.855 138.858 103.855C138.042 103.855 137.392 104.03 136.908 104.38C136.425 104.73 136.183 105.188 136.183 105.755C136.183 106.205 136.325 106.58 136.608 106.88C136.908 107.163 137.275 107.396 137.708 107.58C138.158 107.746 138.775 107.938 139.558 108.155C140.542 108.421 141.342 108.688 141.958 108.955C142.575 109.205 143.1 109.588 143.533 110.105C143.983 110.621 144.217 111.296 144.233 112.13C144.233 112.88 144.025 113.555 143.608 114.155C143.192 114.755 142.6 115.23 141.833 115.58C141.083 115.913 140.217 116.08 139.233 116.08Z" fill="white"/>
</svg>
