<?xml version="1.0" encoding="utf-8"?>
<!-- Generator: Adobe Illustrator 25.2.1, SVG Export Plug-In . SVG Version: 6.00 Build 0)  -->
<svg version="1.1" id="Calque_1" xmlns="http://www.w3.org/2000/svg" xmlns:xlink="http://www.w3.org/1999/xlink" x="0px" y="0px"
	 viewBox="0 0 300 300" style="enable-background:new 0 0 300 300;" xml:space="preserve">
<style type="text/css">
	.st0{clip-path:url(#SVGID_2_);fill:#2B2B2A;}
	.st1{clip-path:url(#SVGID_2_);fill:#FFFFFF;}
</style>
<g>
	<defs>
		<rect id="SVGID_1_" x="1.4" y="1.4" width="297.6" height="297.6"/>
	</defs>
	<clipPath id="SVGID_2_">
		<use xlink:href="#SVGID_1_"  style="overflow:visible;"/>
	</clipPath>
	<path class="st0" d="M150.2,263.2c-53.1,0-97.7-36.8-109.8-86.3l-22.4,5c-0.5,0.1-1,0.2-1.5,0.2c-3.3,0-6.1-2.3-6.9-5.5
		c-0.4-1.8-0.1-3.7,0.9-5.3c1-1.6,2.6-2.7,4.4-3.1l23-5.1c-0.5-4.2-0.7-8.5-0.7-12.8c0-62.3,50.7-113,113-113
		c62.3,0,113,50.7,113,113C263.1,212.5,212.5,263.2,150.2,263.2 M150.2,1.4C68.1,1.4,1.4,68.2,1.4,150.2s66.8,148.8,148.8,148.8
		c82.1,0,148.8-66.8,148.8-148.8S232.2,1.4,150.2,1.4"/>
	<path class="st0" d="M149,228.6c-37.3,0-67.7-30.4-67.7-67.7c0-1.2,1-2.2,2.2-2.2c1.2,0,2.2,1,2.2,2.2c0,35,28.4,63.4,63.4,63.4
		s63.4-28.4,63.4-63.4c0-1.2,1-2.2,2.2-2.2c1.2,0,2.2,1,2.2,2.2C216.8,198.2,186.4,228.6,149,228.6"/>
	<path class="st0" d="M16.5,177.2c-1,0-1.9-0.7-2.1-1.7c-0.3-1.2,0.5-2.3,1.6-2.6l196.4-43.6v-13.7l-26.6-12.9l-0.2-23.9h-15.3v15.4
		l-41.2-21.3l-43.6,42.7v25h-4.3v-26.8l47.2-46.1l37.6,19.5V74.4H190l0.2,25.5l26.6,12.9v19.9l-1.6,0.4c0,0-0.1,0-0.1,0L17,177.1
		C16.8,177.2,16.6,177.2,16.5,177.2"/>
	<path class="st0" d="M135.9,207.2c5.2,1.6,10.6,2,15.7,1.2c5.2-0.8,10-3,14.1-6.2c4.1-3.2,7.3-7.5,9.4-12.3
		c2-4.8,2.9-10.2,2.4-15.7l1.5-0.3c1.4,5.5,1.2,11.6-0.7,17.1c-1.9,5.5-5.4,10.6-10,14.3c-4.6,3.7-10.3,6.1-16.1,6.7
		c-5.9,0.6-11.8-0.5-16.9-3.3L135.9,207.2z"/>
	<path class="st0" d="M182.4,173.5c0.2,1.1-4.5-1.3-3.8,2.7c-0.7-4-4.3-0.2-4.5-1.3c-0.2-1.1,1.5-2.3,3.8-2.7
		C180.2,171.9,182.2,172.4,182.4,173.5"/>
	<path class="st0" d="M137.4,204.2c1,0.5-3.6,3,0.1,4.7c-3.7-1.7-2.6,3.5-3.6,3c-1-0.5-1.1-2.6-0.1-4.7
		C134.8,205.1,136.4,203.7,137.4,204.2"/>
	<path class="st0" d="M164.9,164.2c2.4-4,8-14.2,19.7-17.8c0.2-2.3-19-1.9-21.3,11.2c-0.1,0.5-0.2,1.2,0.4,0.8
		c1.3-0.8,3.1-1.3,0.9,5.5C164.4,164.3,164,165.5,164.9,164.2"/>
	<path class="st0" d="M130.3,159.9c2.7,6.3,2.4,12.5-0.7,13.8c-2.7,1.1-6.5-1.8-9.2-6.8l1.5-3.5l-3.7-1.8c-1.5-5.2-0.9-9.7,1.7-10.8
		C123,149.5,127.7,153.6,130.3,159.9"/>
	<path class="st0" d="M83.5,147.4c-1.2,0-2.2-1-2.2-2.2v-30.6c0-1.2,1-2.2,2.2-2.2c1.2,0,2.2,1,2.2,2.2v30.6
		C85.6,146.5,84.7,147.4,83.5,147.4"/>
	<path class="st1" d="M30.9,129.6l-0.1,1.2c0,0.4-0.4,0.7-0.8,0.6L18,130c-0.2,0-0.2,0.1,0,0.2l11.6,4.2c0.4,0.2,0.7,0.6,0.6,1
		l0,0.3c-0.1,0.4-0.4,0.8-0.8,0.8l-12.3,1.3c-0.2,0-0.3,0.2,0,0.2l11.9,1.4c0.4,0.1,0.7,0.5,0.7,0.8l-0.2,1.2c0,0.4-0.5,0.7-0.8,0.6
		l-17-2.1c-0.5-0.1-0.7-0.3-0.6-0.8l0.3-2.7c0.1-0.5,0.4-0.8,0.9-0.8l9.8-1.1c0.3,0,0.3-0.2,0-0.3l-9.3-3.4c-0.5-0.2-0.7-0.5-0.6-1
		l0.3-2.6c0-0.4,0.4-0.7,0.8-0.7l17,2.1C30.7,128.8,31,129.2,30.9,129.6"/>
	<path class="st1" d="M19.7,115c-0.2,0-0.3,0.2,0,0.3l6.3,3c0.4,0.2,0.7-0.1,0.8-0.5l0.4-1.4c0.1-0.5,0-0.7-0.5-0.8L19.7,115z
		 M34.7,114.1l-0.4,1.3c-0.1,0.5-0.5,0.7-1,0.7l-2.6-0.2c-0.5,0-0.9,0.2-1,0.7l-0.6,2.4c-0.1,0.4,0.2,0.9,0.5,1l2.3,1.1
		c0.4,0.2,0.6,0.6,0.5,1l-0.4,1.3c-0.1,0.4-0.5,0.5-0.9,0.4l-15.7-7.7c-0.4-0.2-0.6-0.5-0.5-1l0.6-2.4c0.1-0.5,0.5-0.7,1-0.7
		l17.4,1.1C34.6,113.3,34.8,113.6,34.7,114.1"/>
	<path class="st1" d="M37.5,106.4l-0.5,1.3c-0.1,0.3-0.6,0.6-0.9,0.4L20,102c-0.4-0.1-0.6-0.6-0.4-0.9l0.5-1.3
		c0.1-0.3,0.6-0.6,0.9-0.4l16.1,6.2C37.5,105.6,37.6,106.1,37.5,106.4"/>
	<path class="st1" d="M42.6,95.8c-2.1,4.2-6.1,3.1-6.7,2.8c-0.3-0.2-0.4-0.5-0.3-0.9l0.2-1.1c0-0.2,0.1-0.4,0.1-0.5
		c0.1-0.3,0.4-0.3,0.8-0.2c1.7,0.4,2.9-0.1,3.5-1.3c0.6-1.1,0.2-2.3-0.9-2.8c-1-0.5-2-0.4-4.5,0.8l-2.2,1c-1.8,0.8-3.5,1.1-5.4,0.2
		c-2.4-1.2-3.2-3.9-1.9-6.4c1.7-3.5,5.5-2.9,6-2.6c0.3,0.2,0.4,0.5,0.3,0.8l-0.2,1.3c0,0.1-0.1,0.2-0.1,0.3
		c-0.1,0.3-0.4,0.4-0.8,0.3c-1.4-0.2-2.4,0.2-2.8,1.1c-0.5,0.9-0.1,2,0.8,2.5c0.9,0.5,1.9,0.3,3.5-0.4l1.5-0.7
		c2.4-1.1,4.4-2.3,7.1-0.9C43.2,90.3,44,93,42.6,95.8"/>
	<path class="st1" d="M40.8,73.7c-2.2-1.5-3.3-1.5-4.2-0.2c-0.9,1.4-0.5,2.3,1.7,3.8l5.5,3.7c2.2,1.5,3.2,1.6,4.2,0.2
		c0.9-1.3,0.5-2.3-1.7-3.8L40.8,73.7z M51,78.4c0.5,1.4,0.2,2.9-0.8,4.4c-1,1.4-2.4,2.3-3.7,2.3c-1.3,0-2.5-0.4-4.3-1.6l-5.6-3.8
		c-1.8-1.2-2.7-2.2-3.1-3.4c-0.5-1.4-0.2-2.8,0.8-4.3c1-1.4,2.3-2.3,3.7-2.4c1.3,0,2.5,0.4,4.3,1.6l5.6,3.8
		C49.7,76.2,50.6,77.2,51,78.4"/>
	<path class="st1" d="M62.9,66.6l-0.9,1.1c-0.3,0.4-0.8,0.4-1.3,0.3l-9.9-3.4c-0.4-0.1-0.5,0-0.2,0.2l7.3,6.5
		c0.3,0.3,0.4,0.7,0.1,1.1l-0.9,1.1c-0.3,0.3-0.7,0.4-1,0.1L43.1,61.9c-0.3-0.3-0.4-0.7-0.1-1.1l0.9-1.1c0.3-0.4,0.8-0.4,1.2-0.3
		l10,3.4c0.4,0.1,0.5,0,0.2-0.2l-7.3-6.5c-0.3-0.3-0.4-0.7-0.1-1l0.9-1.1c0.3-0.3,0.7-0.4,1-0.1l12.8,11.4
		C63.1,65.7,63.1,66.3,62.9,66.6"/>
	<path class="st1" d="M70.9,38.7l-0.3,0.2c-0.3,0.2-0.4,0.7-0.2,1.1l2.4,3.4c0.2,0.3,0.7,0.4,1.1,0.2l0.3-0.2c1.8-1.3,2-2.3,0.8-4
		C73.7,37.6,72.7,37.4,70.9,38.7 M84.5,48.6l-1.3,0.9c-0.4,0.3-0.8,0.3-1.2,0l-5.2-3.9c-0.5-0.3-0.7-0.4-1.2,0l-0.2,0.1
		c-0.4,0.3-0.5,0.6-0.2,1l3.5,5c0.2,0.3,0.2,0.8-0.2,1l-1.2,0.8c-0.4,0.3-0.8,0.1-1-0.2l-9.9-14c-0.2-0.3-0.2-0.8,0.2-1l3.1-2.2
		c2.8-2,5.4-1.6,7.4,1.3c1.2,1.7,1.6,3.3,1,4.8c-0.2,0.5-0.2,0.7,0.2,1l6,4.5C84.8,48,84.9,48.4,84.5,48.6"/>
	<path class="st1" d="M96.7,40.9c0.2,0.4,0,0.8-0.3,1l-6.1,3.3c-0.3,0.2-0.8,0.1-1-0.3l-8.1-15.1c-0.2-0.3,0-0.9,0.3-1l6.1-3.3
		c0.4-0.2,0.8-0.1,1,0.3l0.6,1c0.2,0.4,0.1,0.8-0.3,1l-3.6,1.9c-0.5,0.2-0.5,0.7-0.3,1.1l1.6,2.9c0.2,0.4,0.6,0.5,1,0.3l3.1-1.6
		c0.4-0.2,0.8-0.1,1,0.3l0.6,1c0.2,0.3,0,0.8-0.3,1l-3.1,1.7c-0.4,0.2-0.4,0.7-0.2,1l2,3.7c0.2,0.4,0.6,0.6,1,0.3l3.6-1.9
		c0.3-0.2,0.9,0,1,0.3L96.7,40.9z"/>
	<path class="st1" d="M106.5,37.8c-1.7,0.7-3.4,0.5-4.6-0.4c-1.1-0.9-1.6-1.7-2.7-4.3l-1.9-4.8c-1.1-2.8-1.3-3.8-0.9-5.2
		c0.4-1.4,1.5-2.4,3.1-3.1c2.9-1.1,5.5,0.1,6.8,3.4c0.1,0.4-0.1,0.8-0.5,1l-1.2,0.5c-0.4,0.1-0.8,0-1-0.4c-0.8-1.8-1.9-2.4-3.2-1.9
		c-1.5,0.6-1.6,1.7-0.6,4.2l2.2,5.7c1.1,2.8,2,3.5,3.5,3c1.4-0.5,1.7-1.9,0.9-4c-0.2-0.4,0-0.8,0.4-1l1.2-0.5c0.4-0.2,0.8,0,1,0.4
		C110.5,34,109.6,36.6,106.5,37.8"/>
	<path class="st1" d="M120.2,20.2c-0.6-2.6-1.4-3.3-3-2.9c-1.6,0.4-1.9,1.4-1.3,4l1.6,6.5c0.6,2.5,1.4,3.3,3,2.9
		c1.6-0.4,1.9-1.4,1.3-4L120.2,20.2z M124.7,30.5c-0.6,1.4-1.8,2.3-3.5,2.7c-1.7,0.4-3.3,0.1-4.3-0.8c-1-0.9-1.6-2-2.1-4l-1.6-6.5
		c-0.5-2-0.5-3.4,0-4.5c0.6-1.3,1.7-2.2,3.5-2.7c1.7-0.4,3.3-0.2,4.4,0.8c1,0.9,1.6,2,2.1,4l1.6,6.5C125.2,28,125.2,29.3,124.7,30.5
		"/>
	<path class="st1" d="M133.9,14.4l-0.3,0c-0.4,0-0.7,0.4-0.7,0.8l0.5,4.1c0,0.4,0.4,0.7,0.8,0.7l0.3,0c2.2-0.2,2.8-1.1,2.6-3.2
		C136.9,14.8,136.1,14.1,133.9,14.4 M141.1,29.6l-1.5,0.2c-0.5,0.1-0.9-0.2-1.1-0.6l-2.7-5.9c-0.2-0.5-0.5-0.7-1-0.6l-0.3,0
		c-0.5,0.1-0.7,0.3-0.7,0.8l0.7,6.1c0,0.4-0.2,0.8-0.6,0.8l-1.4,0.2c-0.4,0.1-0.7-0.2-0.8-0.6l-1.9-17c0-0.4,0.3-0.8,0.6-0.8
		l3.8-0.4c3.4-0.4,5.5,1.2,5.9,4.7c0.2,2.1-0.2,3.7-1.4,4.7c-0.4,0.4-0.5,0.6-0.3,1l3.1,6.8C141.7,29.2,141.5,29.6,141.1,29.6"/>
	<path class="st1" d="M154.3,17.4c0-3-0.7-4-2.7-4l-0.7,0c-0.4,0-0.7,0.3-0.7,0.7l-0.2,12c0,0.3,0.3,0.6,0.6,0.6l0.8,0
		c2,0,2.8-1,2.8-3.9L154.3,17.4z M151.6,29.4l-3.9-0.1c-0.4,0-0.7-0.4-0.7-0.8l0.3-17.1c0-0.3,0.3-0.8,0.7-0.7l3.9,0.1
		c3.7,0.1,5.4,2,5.3,5.9l-0.1,7C157,27.6,155.2,29.5,151.6,29.4"/>
	<path class="st1" d="M167.3,30.9c-4.7-0.7-4.9-4.8-4.8-5.5c0.1-0.4,0.4-0.6,0.8-0.6l1.1-0.2c0.2,0,0.4-0.1,0.5,0
		c0.3,0,0.4,0.2,0.5,0.7c0.2,1.7,1,2.8,2.4,2.9c1.2,0.2,2.2-0.6,2.4-1.8c0.2-1.2-0.3-2-2.2-4l-1.7-1.7c-1.3-1.4-2.2-3-1.9-5
		c0.4-2.7,2.7-4.2,5.5-3.8c3.8,0.5,4.5,4.3,4.4,4.8c0,0.3-0.3,0.5-0.7,0.6l-1.3,0.2c-0.1,0-0.2,0-0.3,0c-0.3,0-0.5-0.2-0.5-0.7
		c-0.3-1.4-0.9-2.2-2-2.3c-1-0.1-1.9,0.5-2.1,1.6c-0.1,1,0.3,1.9,1.5,3.2l1.1,1.2c1.8,1.9,3.6,3.5,3.2,6.4
		C172.7,29.7,170.4,31.3,167.3,30.9"/>
	<path class="st1" d="M221.5,52.5l-1-0.7c-0.3-0.2-0.4-0.7-0.2-1l6.6-10c0.1-0.2,0-0.3-0.2-0.1l-8.9,8.5c-0.3,0.3-0.8,0.4-1.2,0.1
		l-0.2-0.1c-0.3-0.2-0.5-0.7-0.4-1.1l4.3-11.6c0.1-0.2,0-0.3-0.2-0.1l-6.6,10c-0.2,0.3-0.7,0.4-1,0.2l-1-0.7c-0.3-0.2-0.4-0.7-0.2-1
		l9.4-14.3c0.3-0.5,0.6-0.5,1-0.2l2.3,1.5c0.4,0.3,0.5,0.7,0.3,1.1l-3.4,9.3c-0.1,0.2,0.1,0.3,0.3,0.2l7.2-6.8
		c0.4-0.4,0.7-0.4,1.2-0.1l2.2,1.4c0.4,0.2,0.5,0.7,0.2,1.1l-9.4,14.3C222.3,52.7,221.8,52.7,221.5,52.5"/>
	<path class="st1" d="M239.5,48.9c0.1-0.2,0-0.3-0.2-0.2l-5.4,4.3c-0.4,0.3-0.3,0.7,0,0.9l1.1,1c0.4,0.3,0.7,0.3,1-0.1L239.5,48.9z
		 M233.7,62.8l-1-0.9c-0.4-0.3-0.4-0.8-0.2-1.2l1.3-2.2c0.2-0.4,0.2-0.9-0.2-1.2l-1.9-1.6c-0.3-0.3-0.9-0.2-1.2,0l-2.1,1.6
		c-0.4,0.3-0.8,0.3-1.1,0l-1-0.9c-0.3-0.3-0.2-0.7,0.1-0.9l13.9-10.7c0.4-0.3,0.7-0.3,1.1,0l1.9,1.6c0.4,0.3,0.4,0.7,0.2,1.2
		l-8.7,15.1C234.4,63,234,63.1,233.7,62.8"/>
	<path class="st1" d="M239.3,68.6l-1-1c-0.2-0.3-0.3-0.8,0-1L251,54.9c0.3-0.3,0.7-0.3,1,0l1,1.1c0.2,0.3,0.2,0.8,0,1l-12.6,11.7
		C240.1,69,239.6,68.9,239.3,68.6"/>
	<path class="st1" d="M246.7,78c-2.8-3.8-0.1-6.9,0.4-7.3c0.3-0.2,0.7-0.1,1,0.1l0.9,0.6c0.2,0.1,0.3,0.3,0.4,0.4
		c0.2,0.2,0.2,0.5-0.1,0.8c-1.1,1.4-1.2,2.7-0.4,3.7c0.8,1,2,1.2,3,0.4c0.9-0.7,1.2-1.6,1.3-4.4l0.1-2.4c0-1.9,0.5-3.7,2.2-4.9
		c2.2-1.6,4.9-1.1,6.6,1.2c2.3,3.1,0.1,6.2-0.3,6.6c-0.3,0.2-0.6,0.2-0.9-0.1l-1.1-0.8c-0.1-0.1-0.2-0.2-0.2-0.2
		c-0.2-0.2-0.2-0.5,0.1-0.8c0.8-1.2,0.9-2.2,0.3-3c-0.6-0.8-1.7-1-2.6-0.4c-0.8,0.6-1.1,1.6-1.2,3.3l0,1.6c-0.1,2.7,0.1,5-2.3,6.8
		C251.3,80.9,248.5,80.4,246.7,78"/>
	<path class="st1" d="M267.2,86c2.3-1.3,2.8-2.3,2-3.7c-0.8-1.4-1.9-1.5-4.2-0.1l-5.8,3.3c-2.3,1.3-2.8,2.2-2,3.7
		c0.8,1.4,1.9,1.5,4.2,0.1L267.2,86z M258.5,93.2c-1.5-0.2-2.7-1.1-3.6-2.6c-0.9-1.5-1-3.1-0.4-4.4c0.6-1.2,1.5-2.1,3.3-3.1l5.9-3.4
		c1.8-1,3.1-1.4,4.4-1.3c1.4,0.2,2.6,1,3.5,2.6c0.9,1.5,1.1,3.1,0.5,4.4c-0.6,1.2-1.5,2.1-3.3,3.1l-5.9,3.3
		C261,93,259.8,93.3,258.5,93.2"/>
	<path class="st1" d="M263.9,109l-0.5-1.3c-0.2-0.5,0-0.9,0.3-1.2l7.5-7.4c0.3-0.3,0.2-0.4-0.1-0.3l-9,3.6c-0.4,0.2-0.8,0-1-0.4
		l-0.5-1.3c-0.2-0.4,0-0.8,0.4-1l15.9-6.4c0.4-0.2,0.8,0,1,0.4l0.5,1.3c0.2,0.4,0,0.9-0.3,1.2l-7.5,7.4c-0.3,0.3-0.2,0.4,0.1,0.3
		l9-3.6c0.4-0.2,0.8,0,1,0.4l0.5,1.3c0.2,0.4,0,0.8-0.4,1l-15.9,6.5C264.5,109.6,264,109.4,263.9,109"/>
	<path class="st1" d="M285.3,128.6l0-0.3c-0.1-0.4-0.5-0.7-0.9-0.6l-4.1,0.6c-0.4,0.1-0.7,0.5-0.6,0.9l0,0.3
		c0.3,2.2,1.2,2.8,3.3,2.5C285,131.6,285.6,130.8,285.3,128.6 M270.3,136.4l-0.2-1.5c-0.1-0.5,0.1-0.9,0.6-1.1l5.8-2.9
		c0.5-0.3,0.7-0.5,0.6-1.1l0-0.3c-0.1-0.5-0.3-0.7-0.8-0.6l-6.1,0.9c-0.4,0.1-0.8-0.2-0.8-0.6l-0.2-1.4c-0.1-0.4,0.2-0.7,0.6-0.8
		l17-2.6c0.4-0.1,0.8,0.2,0.9,0.6l0.6,3.8c0.5,3.4-1,5.5-4.5,6.1c-2.1,0.3-3.7-0.1-4.8-1.2c-0.4-0.4-0.6-0.5-1-0.3l-6.7,3.4
		C270.8,137,270.4,136.8,270.3,136.4"/>
	<path class="st1" d="M271.8,150.7c-0.4,0-0.7-0.3-0.8-0.7l-0.2-6.9c0-0.4,0.3-0.8,0.7-0.8l17.1-0.6c0.3,0,0.8,0.4,0.8,0.7l0.2,6.9
		c0,0.5-0.2,0.7-0.7,0.8l-1.2,0c-0.4,0-0.7-0.2-0.8-0.7l-0.1-4.1c0-0.5-0.4-0.7-0.9-0.7l-3.3,0.1c-0.4,0-0.7,0.4-0.7,0.8l0.1,3.5
		c0,0.5-0.3,0.7-0.7,0.8l-1.2,0c-0.4,0-0.7-0.3-0.8-0.7l-0.1-3.5c0-0.4-0.4-0.7-0.8-0.7l-4.2,0.1c-0.4,0-0.8,0.3-0.7,0.7l0.1,4.1
		c0,0.4-0.4,0.8-0.8,0.8L271.8,150.7z"/>
	<path class="st1" d="M270.3,160.9c0.2-1.8,1.1-3.3,2.4-4c1.3-0.6,2.3-0.7,5.1-0.5l5.2,0.4c3,0.3,4,0.6,5.1,1.5
		c1.1,1,1.5,2.4,1.4,4.1c-0.3,3.1-2.6,4.9-6.1,4.6c-0.4,0-0.7-0.5-0.7-0.8l0.1-1.3c0-0.4,0.4-0.7,0.8-0.7c1.9,0.1,3-0.6,3.1-2
		c0.1-1.6-0.8-2.2-3.5-2.4l-6.1-0.5c-3-0.3-4.1,0.2-4.2,1.8c-0.1,1.5,0.9,2.3,3.2,2.6c0.4,0,0.7,0.4,0.7,0.8l-0.1,1.3
		c0,0.5-0.4,0.8-0.8,0.7C272,166.1,270,164.2,270.3,160.9"/>
	<path class="st1" d="M280.1,181c2.6,0.6,3.6,0.2,4-1.4c0.4-1.6-0.4-2.3-3-2.9l-6.5-1.4c-2.6-0.6-3.6-0.2-3.9,1.4
		c-0.3,1.6,0.4,2.3,3,2.9L280.1,181z M268.8,180.5c-1-1.1-1.3-2.6-0.9-4.3c0.4-1.7,1.3-3,2.6-3.5c1.2-0.5,2.5-0.6,4.5-0.1l6.6,1.4
		c2.1,0.5,3.3,1,4.1,2c1,1.1,1.3,2.5,0.9,4.3c-0.4,1.7-1.3,3-2.6,3.6c-1.2,0.5-2.5,0.5-4.6,0.1l-6.6-1.4
		C270.9,182,269.7,181.4,268.8,180.5"/>
	<path class="st1" d="M279.2,195.9l0.1-0.3c0.1-0.4-0.1-0.8-0.5-1l-3.9-1.4c-0.4-0.1-0.8,0.1-1,0.5l-0.1,0.3c-0.7,2.1-0.3,3,1.7,3.7
		C277.5,198.4,278.5,197.9,279.2,195.9 M262.3,195.6l0.5-1.5c0.2-0.5,0.5-0.7,1-0.7l6.4,0.2c0.6,0,0.8-0.1,1-0.7l0.1-0.2
		c0.2-0.5,0-0.8-0.4-1l-5.8-2.1c-0.4-0.1-0.6-0.5-0.4-0.9l0.5-1.4c0.2-0.4,0.5-0.6,0.9-0.4l16.1,5.8c0.4,0.1,0.6,0.6,0.5,0.9
		l-1.3,3.6c-1.2,3.3-3.5,4.4-6.8,3.2c-2-0.7-3.2-1.8-3.6-3.3c-0.1-0.5-0.3-0.7-0.7-0.7l-7.5-0.2
		C262.5,196.3,262.2,195.9,262.3,195.6"/>
	<path class="st1" d="M267.4,212.8c2.6,1.3,3.9,1.2,4.8-0.6l0.3-0.7c0.2-0.4,0.1-0.8-0.3-0.9l-10.7-5.5c-0.3-0.2-0.7,0-0.8,0.3
		l-0.4,0.7c-0.9,1.8-0.3,2.9,2.3,4.2L267.4,212.8z M257.9,205.1l1.8-3.4c0.2-0.4,0.6-0.5,1-0.3l15.2,7.8c0.3,0.2,0.5,0.6,0.4,0.9
		l-1.8,3.4c-1.7,3.3-4.1,3.9-7.6,2.1l-6.2-3.2C257.1,210.7,256.2,208.3,257.9,205.1"/>
	<path class="st1" d="M249.6,218.5c2.7-3.9,6.5-2.3,7-1.9c0.3,0.2,0.4,0.6,0.2,1l-0.3,1c-0.1,0.2-0.1,0.4-0.2,0.5
		c-0.2,0.2-0.4,0.3-0.8,0.1c-1.6-0.6-2.9-0.3-3.7,0.8c-0.7,1-0.5,2.2,0.5,2.9c1,0.7,1.9,0.6,4.6-0.2l2.3-0.7
		c1.8-0.6,3.7-0.7,5.3,0.5c2.2,1.5,2.6,4.3,1,6.6c-2.2,3.2-5.9,2.1-6.3,1.8c-0.3-0.2-0.3-0.5-0.2-0.9l0.4-1.3c0-0.1,0.1-0.2,0.1-0.3
		c0.2-0.3,0.4-0.3,0.8-0.2c1.4,0.4,2.4,0.1,3-0.7c0.6-0.9,0.4-2-0.5-2.6c-0.8-0.6-1.8-0.6-3.5-0.1l-1.6,0.5c-2.5,0.8-4.7,1.7-7.2,0
		C248.2,223.8,247.8,221,249.6,218.5"/>
	<path class="st1" d="M206.2,257.5l1.1-0.6c0.4-0.2,0.8-0.1,1,0.3l6.1,10.3c0.1,0.2,0.2,0.1,0.2-0.1l-3.6-11.8
		c-0.1-0.4,0-0.9,0.4-1.1l0.2-0.1c0.4-0.2,0.9-0.2,1.2,0.2l8.5,9c0.2,0.2,0.3,0.1,0.2-0.1l-6.1-10.3c-0.2-0.4-0.1-0.8,0.3-1l1.1-0.6
		c0.3-0.2,0.8-0.1,1,0.3l8.7,14.8c0.3,0.5,0.2,0.7-0.3,1l-2.4,1.4c-0.5,0.3-0.8,0.2-1.2-0.2l-6.8-7.2c-0.2-0.2-0.3-0.1-0.3,0.2
		l2.9,9.5c0.2,0.5,0.1,0.8-0.4,1.1l-2.3,1.3c-0.4,0.2-0.8,0.1-1.1-0.3l-8.7-14.8C205.7,258.2,205.9,257.7,206.2,257.5"/>
	<path class="st1" d="M201.5,275.3c0.1,0.1,0.3,0.1,0.3-0.1l-1.5-6.8c-0.1-0.5-0.5-0.5-0.9-0.4l-1.4,0.6c-0.4,0.2-0.6,0.5-0.3,0.9
		L201.5,275.3z M191.6,263.9l1.3-0.5c0.5-0.2,0.9,0,1.1,0.4l1.4,2.1c0.3,0.4,0.7,0.6,1.1,0.4l2.3-0.9c0.4-0.2,0.6-0.7,0.5-1.1
		l-0.5-2.6c-0.1-0.5,0.1-0.8,0.5-1l1.3-0.5c0.4-0.2,0.7,0.1,0.8,0.5l3.5,17.1c0.1,0.5-0.1,0.8-0.5,1l-2.3,0.9
		c-0.5,0.2-0.8,0.1-1.1-0.4l-9.7-14.5C191,264.5,191.2,264.1,191.6,263.9"/>
	<path class="st1" d="M183.8,266.3l1.4-0.4c0.4-0.1,0.8,0.1,0.9,0.5l4.9,16.5c0.1,0.4-0.1,0.8-0.5,0.9l-1.4,0.4
		c-0.3,0.1-0.8-0.1-0.9-0.5l-4.9-16.5C183.2,266.9,183.5,266.4,183.8,266.3"/>
	<path class="st1" d="M172.3,268.8c4.6-0.9,6.2,3,6.3,3.6c0.1,0.4-0.2,0.7-0.5,0.8l-1,0.5c-0.2,0.1-0.4,0.2-0.5,0.2
		c-0.3,0.1-0.5-0.1-0.7-0.5c-0.7-1.6-1.9-2.3-3.2-2c-1.2,0.2-1.9,1.2-1.7,2.5c0.2,1.2,0.9,1.8,3.4,3.1l2.1,1.1
		c1.7,0.9,3,2.1,3.4,4.1c0.5,2.7-1.2,4.9-4,5.4c-3.8,0.7-5.6-2.6-5.7-3.2c-0.1-0.3,0.1-0.6,0.4-0.8l1.2-0.6c0.1,0,0.2-0.1,0.3-0.1
		c0.3-0.1,0.5,0.1,0.7,0.5c0.7,1.2,1.6,1.8,2.6,1.6c1-0.2,1.7-1.1,1.5-2.2c-0.2-1-0.9-1.7-2.4-2.5l-1.4-0.8c-2.4-1.2-4.5-2.2-5-5.1
		C167.6,271.6,169.3,269.3,172.3,268.8"/>
	<path class="st1" d="M155.9,283.6c0.2,2.7,0.8,3.5,2.4,3.4c1.6-0.1,2.1-1,2-3.7l-0.4-6.7c-0.2-2.6-0.7-3.5-2.4-3.4
		c-1.6,0.1-2.1,1-2,3.7L155.9,283.6z M153.4,272.6c0.8-1.3,2.2-1.9,3.9-2c1.7-0.1,3.3,0.5,4.1,1.6c0.8,1.1,1.2,2.2,1.3,4.3l0.4,6.8
		c0.1,2.1-0.1,3.4-0.8,4.5c-0.8,1.2-2.1,1.9-3.9,2c-1.7,0.1-3.3-0.4-4.1-1.5c-0.8-1.1-1.2-2.3-1.3-4.4l-0.4-6.8
		C152.4,275,152.7,273.7,153.4,272.6"/>
	<path class="st1" d="M136.7,270.4l1.4,0.1c0.5,0,0.8,0.4,1,0.8l3.3,10c0.1,0.4,0.3,0.4,0.3,0l0.7-9.7c0-0.4,0.4-0.7,0.8-0.7
		l1.4,0.1c0.4,0,0.7,0.3,0.7,0.8l-1.2,17.1c0,0.4-0.3,0.7-0.8,0.7l-1.4-0.1c-0.5,0-0.8-0.4-1-0.8l-3.4-10c-0.1-0.4-0.3-0.4-0.3,0
		l-0.7,9.7c0,0.4-0.4,0.7-0.8,0.7l-1.4-0.1c-0.4,0-0.7-0.3-0.7-0.8l1.3-17.1C136,270.8,136.4,270.4,136.7,270.4"/>
	<path class="st1" d="M109.7,281l0.3,0.1c0.4,0.1,0.8-0.1,0.9-0.5l1.3-4c0.1-0.4-0.1-0.8-0.5-1l-0.3-0.1c-2.1-0.7-3-0.2-3.7,1.9
		C107.1,279.4,107.6,280.3,109.7,281 M109.3,264.1l1.5,0.5c0.5,0.2,0.7,0.5,0.7,1l0.1,6.4c0,0.6,0.2,0.8,0.7,1l0.2,0.1
		c0.5,0.1,0.8,0,0.9-0.5l1.8-5.9c0.1-0.4,0.5-0.6,0.9-0.5l1.4,0.4c0.4,0.1,0.6,0.5,0.5,0.9l-5.1,16.4c-0.1,0.4-0.6,0.6-0.9,0.5
		l-3.6-1.1c-3.3-1-4.5-3.4-3.5-6.7c0.6-2,1.7-3.2,3.2-3.7c0.5-0.2,0.7-0.3,0.7-0.8l-0.1-7.5C108.6,264.3,109,264,109.3,264.1"/>
	<path class="st1" d="M95.8,259.1c0.2-0.4,0.6-0.5,1-0.4l6.3,2.9c0.4,0.2,0.6,0.6,0.4,1l-7.1,15.6c-0.1,0.3-0.7,0.5-1,0.4l-6.3-2.9
		c-0.5-0.2-0.6-0.5-0.4-1l0.5-1.1c0.2-0.4,0.5-0.6,0.9-0.4l3.7,1.7c0.5,0.2,0.8,0,1-0.5l1.4-3c0.2-0.4,0-0.8-0.4-1l-3.2-1.4
		c-0.4-0.2-0.5-0.6-0.4-1l0.5-1.1c0.2-0.4,0.6-0.5,1-0.4l3.2,1.4c0.4,0.2,0.8,0,1-0.4l1.7-3.8c0.2-0.4,0.1-0.8-0.3-1l-3.7-1.7
		c-0.4-0.2-0.5-0.7-0.4-1L95.8,259.1z"/>
	<path class="st1" d="M87.5,253.2c1.6,1,2.5,2.4,2.5,3.9c0,1.4-0.4,2.3-1.8,4.8l-2.7,4.4c-1.6,2.6-2.3,3.3-3.6,3.9
		c-1.4,0.5-2.8,0.3-4.3-0.6c-2.7-1.6-3.2-4.5-1.4-7.5c0.2-0.3,0.7-0.4,1.1-0.2l1.1,0.7c0.3,0.2,0.4,0.7,0.3,1
		c-0.9,1.7-0.8,3,0.4,3.7c1.3,0.8,2.3,0.3,3.7-2l3.2-5.3c1.6-2.6,1.6-3.7,0.3-4.5c-1.2-0.8-2.5-0.2-3.7,1.7c-0.2,0.4-0.6,0.5-1,0.2
		l-1.1-0.7c-0.4-0.2-0.5-0.7-0.3-1.1C82,252.4,84.6,251.5,87.5,253.2"/>
	<path class="st1" d="M65,253.1c-1.7,2.1-1.8,3.1-0.5,4.2c1.3,1,2.3,0.7,3.9-1.4l4.2-5.2c1.7-2.1,1.8-3.1,0.5-4.1
		c-1.3-1-2.3-0.7-3.9,1.4L65,253.1z M70.5,243.2c1.5-0.4,2.9,0,4.3,1.1c1.4,1.1,2.1,2.5,2,3.9c-0.1,1.3-0.6,2.5-1.9,4.1l-4.2,5.3
		c-1.3,1.6-2.4,2.5-3.6,2.8c-1.4,0.4-2.8,0-4.2-1.1c-1.4-1.1-2.1-2.5-2-3.9c0.1-1.3,0.6-2.5,1.9-4.1l4.2-5.3
		C68.3,244.4,69.3,243.6,70.5,243.2"/>
	<path class="st1" d="M52.1,245.7l0.2,0.2c0.3,0.3,0.8,0.3,1.1,0l3-2.9c0.3-0.3,0.3-0.8,0-1.1l-0.2-0.2c-1.5-1.6-2.6-1.6-4.1-0.1
		C50.6,243.1,50.6,244.1,52.1,245.7 M59.9,230.7l1.1,1.1c0.4,0.4,0.4,0.8,0.1,1.2l-3,5.7c-0.2,0.5-0.3,0.8,0.1,1.2l0.2,0.2
		c0.3,0.4,0.7,0.4,1.1,0l4.4-4.3c0.3-0.3,0.7-0.3,1,0l1,1c0.3,0.3,0.3,0.7,0,1l-12.4,11.9c-0.3,0.3-0.8,0.3-1.1,0l-2.6-2.7
		c-2.4-2.5-2.4-5.1,0.1-7.5c1.5-1.4,3-2,4.6-1.8c0.5,0.1,0.7,0.1,1-0.3l3.5-6.6C59.2,230.5,59.6,230.4,59.9,230.7"/>
	<path class="st1" d="M42.2,227.7c-2.4,1.8-2.7,3-1.5,4.6l0.4,0.6c0.2,0.3,0.7,0.4,1,0.1l9.6-7.2c0.3-0.2,0.3-0.6,0.1-0.9l-0.5-0.6
		c-1.2-1.6-2.5-1.6-4.8,0.2L42.2,227.7z M53.3,222.5l2.3,3.1c0.2,0.3,0.1,0.7-0.2,1l-13.7,10.2c-0.3,0.2-0.8,0.2-1-0.1l-2.3-3.1
		c-2.2-2.9-1.7-5.5,1.4-7.8l5.6-4.2C48.6,219.3,51.1,219.6,53.3,222.5"/>
	<path class="st1" d="M44.9,209.1c2.3,4.1-0.8,6.8-1.4,7.2c-0.3,0.2-0.7,0.1-1-0.2l-0.8-0.8c-0.1-0.2-0.3-0.3-0.3-0.4
		c-0.1-0.3-0.1-0.5,0.2-0.8c1.3-1.2,1.6-2.5,0.9-3.7c-0.6-1.1-1.8-1.4-2.9-0.8c-1,0.6-1.4,1.4-1.8,4.2l-0.4,2.4
		c-0.3,1.9-1,3.6-2.8,4.6c-2.4,1.3-5,0.5-6.4-2c-1.9-3.4,0.7-6.2,1.2-6.5c0.3-0.2,0.6-0.1,0.9,0.2l1,0.9c0.1,0.1,0.2,0.2,0.2,0.2
		c0.2,0.3,0.1,0.5-0.2,0.8c-1,1.1-1.2,2.1-0.7,3c0.5,0.9,1.6,1.2,2.5,0.7c0.9-0.5,1.3-1.4,1.6-3.1l0.3-1.6c0.4-2.6,0.6-4.9,3.2-6.4
		C40.8,205.6,43.4,206.5,44.9,209.1"/>
	<path class="st1" d="M200.3,28.4c0,2.6-2.1,4.8-4.8,4.8c-2.6,0-4.8-2.1-4.8-4.8c0-2.6,2.1-4.8,4.8-4.8
		C198.2,23.7,200.3,25.8,200.3,28.4"/>
	<path class="st1" d="M245,244.1c0,2.6-2.1,4.8-4.8,4.8c-2.6,0-4.8-2.1-4.8-4.8c0-2.6,2.1-4.8,4.8-4.8
		C242.8,239.3,245,241.5,245,244.1"/>
</g>
</svg>
