<svg width="227" height="153" viewBox="0 0 227 153" fill="none" xmlns="http://www.w3.org/2000/svg">
<rect width="227" height="153" rx="10" fill="#565555"/>
<path d="M52 78C52 78 48 78 48 74C48 70 52 58 68 58C84 58 88 70 88 74C88 78 84 78 84 78H52ZM68 54C71.1826 54 74.2348 52.7357 76.4853 50.4853C78.7357 48.2348 80 45.1826 80 42C80 38.8174 78.7357 35.7652 76.4853 33.5147C74.2348 31.2643 71.1826 30 68 30C64.8174 30 61.7652 31.2643 59.5147 33.5147C57.2643 35.7652 56 38.8174 56 42C56 45.1826 57.2643 48.2348 59.5147 50.4853C61.7652 52.7357 64.8174 54 68 54Z" fill="white"/>
<path fill-rule="evenodd" clip-rule="evenodd" d="M44.864 78C44.271 76.7513 43.9753 75.3822 44 74C44 68.58 46.72 63 51.744 59.12C49.2364 58.3473 46.6238 57.9695 44 58C28 58 24 70 24 74C24 78 28 78 28 78H44.864Z" fill="white"/>
<path d="M42 54C44.6522 54 47.1957 52.9464 49.0711 51.0711C50.9464 49.1957 52 46.6522 52 44C52 41.3478 50.9464 38.8043 49.0711 36.9289C47.1957 35.0536 44.6522 34 42 34C39.3478 34 36.8043 35.0536 34.9289 36.9289C33.0536 38.8043 32 41.3478 32 44C32 46.6522 33.0536 49.1957 34.9289 51.0711C36.8043 52.9464 39.3478 54 42 54Z" fill="white"/>
<path d="M75.9595 100.575L69.3845 118H66.7595L60.1845 100.575H62.6095L68.0845 115.6L73.5595 100.575H75.9595ZM79.484 102.075C79.0507 102.075 78.684 101.925 78.384 101.625C78.084 101.325 77.934 100.958 77.934 100.525C77.934 100.092 78.084 99.725 78.384 99.425C78.684 99.125 79.0507 98.975 79.484 98.975C79.9007 98.975 80.2507 99.125 80.534 99.425C80.834 99.725 80.984 100.092 80.984 100.525C80.984 100.958 80.834 101.325 80.534 101.625C80.2507 101.925 79.9007 102.075 79.484 102.075ZM80.584 104.3V118H78.309V104.3H80.584ZM89.1663 118.225C88.1163 118.225 87.1747 118.05 86.3413 117.7C85.508 117.333 84.8497 116.833 84.3663 116.2C83.883 115.55 83.6163 114.808 83.5663 113.975H85.9163C85.983 114.658 86.2997 115.217 86.8663 115.65C87.4497 116.083 88.208 116.3 89.1413 116.3C90.008 116.3 90.6913 116.108 91.1913 115.725C91.6913 115.342 91.9413 114.858 91.9413 114.275C91.9413 113.675 91.6747 113.233 91.1413 112.95C90.608 112.65 89.783 112.358 88.6663 112.075C87.6497 111.808 86.8163 111.542 86.1663 111.275C85.533 110.992 84.983 110.583 84.5163 110.05C84.0663 109.5 83.8413 108.783 83.8413 107.9C83.8413 107.2 84.0497 106.558 84.4663 105.975C84.883 105.392 85.4747 104.933 86.2413 104.6C87.008 104.25 87.883 104.075 88.8663 104.075C90.383 104.075 91.608 104.458 92.5413 105.225C93.4747 105.992 93.9747 107.042 94.0413 108.375H91.7663C91.7163 107.658 91.4247 107.083 90.8913 106.65C90.3747 106.217 89.6747 106 88.7913 106C87.9747 106 87.3247 106.175 86.8413 106.525C86.358 106.875 86.1163 107.333 86.1163 107.9C86.1163 108.35 86.258 108.725 86.5413 109.025C86.8413 109.308 87.208 109.542 87.6413 109.725C88.0913 109.892 88.708 110.083 89.4913 110.3C90.4747 110.567 91.2747 110.833 91.8913 111.1C92.508 111.35 93.033 111.733 93.4663 112.25C93.9163 112.767 94.1497 113.442 94.1663 114.275C94.1663 115.025 93.958 115.7 93.5413 116.3C93.1247 116.9 92.533 117.375 91.7663 117.725C91.0163 118.058 90.1497 118.225 89.1663 118.225ZM98.4079 102.075C97.9745 102.075 97.6079 101.925 97.3079 101.625C97.0079 101.325 96.8579 100.958 96.8579 100.525C96.8579 100.092 97.0079 99.725 97.3079 99.425C97.6079 99.125 97.9745 98.975 98.4079 98.975C98.8245 98.975 99.1745 99.125 99.4579 99.425C99.7579 99.725 99.9079 100.092 99.9079 100.525C99.9079 100.958 99.7579 101.325 99.4579 101.625C99.1745 101.925 98.8245 102.075 98.4079 102.075ZM99.5079 104.3V118H97.2329V104.3H99.5079ZM106.015 106.175V114.25C106.015 114.917 106.157 115.392 106.44 115.675C106.724 115.942 107.215 116.075 107.915 116.075H109.59V118H107.54C106.274 118 105.324 117.708 104.69 117.125C104.057 116.542 103.74 115.583 103.74 114.25V106.175H101.965V104.3H103.74V100.85H106.015V104.3H109.59V106.175H106.015ZM118.177 118.225C116.893 118.225 115.727 117.933 114.677 117.35C113.643 116.767 112.827 115.942 112.227 114.875C111.643 113.792 111.352 112.542 111.352 111.125C111.352 109.725 111.652 108.492 112.252 107.425C112.868 106.342 113.702 105.517 114.752 104.95C115.802 104.367 116.977 104.075 118.277 104.075C119.577 104.075 120.752 104.367 121.802 104.95C122.852 105.517 123.677 106.333 124.277 107.4C124.893 108.467 125.202 109.708 125.202 111.125C125.202 112.542 124.885 113.792 124.252 114.875C123.635 115.942 122.793 116.767 121.727 117.35C120.66 117.933 119.477 118.225 118.177 118.225ZM118.177 116.225C118.993 116.225 119.76 116.033 120.477 115.65C121.193 115.267 121.768 114.692 122.202 113.925C122.652 113.158 122.877 112.225 122.877 111.125C122.877 110.025 122.66 109.092 122.227 108.325C121.793 107.558 121.227 106.992 120.527 106.625C119.827 106.242 119.068 106.05 118.252 106.05C117.418 106.05 116.652 106.242 115.952 106.625C115.268 106.992 114.718 107.558 114.302 108.325C113.885 109.092 113.677 110.025 113.677 111.125C113.677 112.242 113.877 113.183 114.277 113.95C114.693 114.717 115.243 115.292 115.927 115.675C116.61 116.042 117.36 116.225 118.177 116.225ZM130.323 106.525C130.723 105.742 131.29 105.133 132.023 104.7C132.773 104.267 133.681 104.05 134.748 104.05V106.4H134.148C131.598 106.4 130.323 107.783 130.323 110.55V118H128.048V104.3H130.323V106.525ZM142.079 118.225C141.029 118.225 140.087 118.05 139.254 117.7C138.421 117.333 137.762 116.833 137.279 116.2C136.796 115.55 136.529 114.808 136.479 113.975H138.829C138.896 114.658 139.212 115.217 139.779 115.65C140.362 116.083 141.121 116.3 142.054 116.3C142.921 116.3 143.604 116.108 144.104 115.725C144.604 115.342 144.854 114.858 144.854 114.275C144.854 113.675 144.587 113.233 144.054 112.95C143.521 112.65 142.696 112.358 141.579 112.075C140.562 111.808 139.729 111.542 139.079 111.275C138.446 110.992 137.896 110.583 137.429 110.05C136.979 109.5 136.754 108.783 136.754 107.9C136.754 107.2 136.962 106.558 137.379 105.975C137.796 105.392 138.387 104.933 139.154 104.6C139.921 104.25 140.796 104.075 141.779 104.075C143.296 104.075 144.521 104.458 145.454 105.225C146.387 105.992 146.887 107.042 146.954 108.375H144.679C144.629 107.658 144.337 107.083 143.804 106.65C143.287 106.217 142.587 106 141.704 106C140.887 106 140.237 106.175 139.754 106.525C139.271 106.875 139.029 107.333 139.029 107.9C139.029 108.35 139.171 108.725 139.454 109.025C139.754 109.308 140.121 109.542 140.554 109.725C141.004 109.892 141.621 110.083 142.404 110.3C143.387 110.567 144.187 110.833 144.804 111.1C145.421 111.35 145.946 111.733 146.379 112.25C146.829 112.767 147.062 113.442 147.079 114.275C147.079 115.025 146.871 115.7 146.454 116.3C146.037 116.9 145.446 117.375 144.679 117.725C143.929 118.058 143.062 118.225 142.079 118.225Z" fill="white"/>
</svg>
