<svg width="227" height="152" viewBox="0 0 227 152" fill="none" xmlns="http://www.w3.org/2000/svg">
<rect width="227" height="152" rx="10" fill="#565555"/>
<path d="M34.6663 80.6666H66.6663V75.3333H34.6663V43.3333H29.333V75.3333C29.333 78.2746 31.725 80.6666 34.6663 80.6666Z" fill="white"/>
<path d="M77.3333 27.3333H45.3333C42.392 27.3333 40 29.7253 40 32.6666V64.6666C40 67.6079 42.392 69.9999 45.3333 69.9999H77.3333C80.2747 69.9999 82.6667 67.6079 82.6667 64.6666V32.6666C82.6667 29.7253 80.2747 27.3333 77.3333 27.3333ZM72 51.3333H64V59.3333H58.6667V51.3333H50.6667V45.9999H58.6667V37.9999H64V45.9999H72V51.3333Z" fill="white"/>
<path d="M91.0526 114.125H83.4526L82.0526 118H79.6526L85.9526 100.675H88.5776L94.8526 118H92.4526L91.0526 114.125ZM90.4026 112.275L87.2526 103.475L84.1026 112.275H90.4026ZM96.6033 111.1C96.6033 109.7 96.8867 108.475 97.4533 107.425C98.02 106.358 98.795 105.533 99.7783 104.95C100.778 104.367 101.895 104.075 103.128 104.075C104.195 104.075 105.187 104.325 106.103 104.825C107.02 105.308 107.72 105.95 108.203 106.75V99.5H110.503V118H108.203V115.425C107.753 116.242 107.087 116.917 106.203 117.45C105.32 117.967 104.287 118.225 103.103 118.225C101.887 118.225 100.778 117.925 99.7783 117.325C98.795 116.725 98.02 115.883 97.4533 114.8C96.8867 113.717 96.6033 112.483 96.6033 111.1ZM108.203 111.125C108.203 110.092 107.995 109.192 107.578 108.425C107.162 107.658 106.595 107.075 105.878 106.675C105.178 106.258 104.403 106.05 103.553 106.05C102.703 106.05 101.928 106.25 101.228 106.65C100.528 107.05 99.97 107.633 99.5533 108.4C99.1367 109.167 98.9283 110.067 98.9283 111.1C98.9283 112.15 99.1367 113.067 99.5533 113.85C99.97 114.617 100.528 115.208 101.228 115.625C101.928 116.025 102.703 116.225 103.553 116.225C104.403 116.225 105.178 116.025 105.878 115.625C106.595 115.208 107.162 114.617 107.578 113.85C107.995 113.067 108.203 112.158 108.203 111.125ZM113.353 111.1C113.353 109.7 113.636 108.475 114.203 107.425C114.77 106.358 115.545 105.533 116.528 104.95C117.528 104.367 118.645 104.075 119.878 104.075C120.945 104.075 121.936 104.325 122.853 104.825C123.77 105.308 124.47 105.95 124.953 106.75V99.5H127.253V118H124.953V115.425C124.503 116.242 123.836 116.917 122.953 117.45C122.07 117.967 121.036 118.225 119.853 118.225C118.636 118.225 117.528 117.925 116.528 117.325C115.545 116.725 114.77 115.883 114.203 114.8C113.636 113.717 113.353 112.483 113.353 111.1ZM124.953 111.125C124.953 110.092 124.745 109.192 124.328 108.425C123.911 107.658 123.345 107.075 122.628 106.675C121.928 106.258 121.153 106.05 120.303 106.05C119.453 106.05 118.678 106.25 117.978 106.65C117.278 107.05 116.72 107.633 116.303 108.4C115.886 109.167 115.678 110.067 115.678 111.1C115.678 112.15 115.886 113.067 116.303 113.85C116.72 114.617 117.278 115.208 117.978 115.625C118.678 116.025 119.453 116.225 120.303 116.225C121.153 116.225 121.928 116.025 122.628 115.625C123.345 115.208 123.911 114.617 124.328 113.85C124.745 113.067 124.953 112.158 124.953 111.125Z" fill="white"/>
</svg>
